<svg width="74" height="24" viewBox="0 0 74 24" fill="none" xmlns="http://www.w3.org/2000/svg">
<circle cx="12" cy="12" r="11.5" stroke="white"/>
<path d="M30.8184 17H28.9961L29.0078 15.834H30.8184C31.3457 15.834 31.7871 15.7188 32.1426 15.4883C32.502 15.2578 32.7715 14.9277 32.9512 14.498C33.1348 14.0684 33.2266 13.5566 33.2266 12.9629V12.5C33.2266 12.0391 33.1738 11.6309 33.0684 11.2754C32.9668 10.9199 32.8145 10.6211 32.6113 10.3789C32.4121 10.1367 32.166 9.95312 31.873 9.82812C31.584 9.70312 31.25 9.64062 30.8711 9.64062H28.9609V8.46875H30.8711C31.4375 8.46875 31.9551 8.56445 32.4238 8.75586C32.8926 8.94336 33.2969 9.21484 33.6367 9.57031C33.9805 9.92578 34.2441 10.3516 34.4277 10.8477C34.6113 11.3438 34.7031 11.8984 34.7031 12.5117V12.9629C34.7031 13.5762 34.6113 14.1309 34.4277 14.627C34.2441 15.123 33.9805 15.5488 33.6367 15.9043C33.293 16.2559 32.8828 16.5273 32.4062 16.7188C31.9336 16.9062 31.4043 17 30.8184 17ZM29.8105 8.46875V17H28.3398V8.46875H29.8105ZM42.9824 12.5V12.9688C42.9824 13.6133 42.8984 14.1914 42.7305 14.7031C42.5625 15.2148 42.3223 15.6504 42.0098 16.0098C41.7012 16.3691 41.3301 16.6445 40.8965 16.8359C40.4629 17.0234 39.9824 17.1172 39.4551 17.1172C38.9316 17.1172 38.4531 17.0234 38.0195 16.8359C37.5898 16.6445 37.2168 16.3691 36.9004 16.0098C36.584 15.6504 36.3379 15.2148 36.1621 14.7031C35.9902 14.1914 35.9043 13.6133 35.9043 12.9688V12.5C35.9043 11.8555 35.9902 11.2793 36.1621 10.7715C36.334 10.2598 36.5762 9.82422 36.8887 9.46484C37.2051 9.10156 37.5781 8.82617 38.0078 8.63867C38.4414 8.44727 38.9199 8.35156 39.4434 8.35156C39.9707 8.35156 40.4512 8.44727 40.8848 8.63867C41.3184 8.82617 41.6914 9.10156 42.0039 9.46484C42.3164 9.82422 42.5566 10.2598 42.7246 10.7715C42.8965 11.2793 42.9824 11.8555 42.9824 12.5ZM41.5117 12.9688V12.4883C41.5117 12.0117 41.4648 11.5918 41.3711 11.2285C41.2812 10.8613 41.1465 10.5547 40.9668 10.3086C40.791 10.0586 40.5742 9.87109 40.3164 9.74609C40.0586 9.61719 39.7676 9.55273 39.4434 9.55273C39.1191 9.55273 38.8301 9.61719 38.5762 9.74609C38.3223 9.87109 38.1055 10.0586 37.9258 10.3086C37.75 10.5547 37.6152 10.8613 37.5215 11.2285C37.4277 11.5918 37.3809 12.0117 37.3809 12.4883V12.9688C37.3809 13.4453 37.4277 13.8672 37.5215 14.2344C37.6152 14.6016 37.752 14.9121 37.9316 15.166C38.1152 15.416 38.334 15.6055 38.5879 15.7344C38.8418 15.8594 39.1309 15.9219 39.4551 15.9219C39.7832 15.9219 40.0742 15.8594 40.3281 15.7344C40.582 15.6055 40.7969 15.416 40.9727 15.166C41.1484 14.9121 41.2812 14.6016 41.3711 14.2344C41.4648 13.8672 41.5117 13.4453 41.5117 12.9688ZM51.2207 8.46875V17H49.75L45.9238 10.8887V17H44.4531V8.46875H45.9238L49.7617 14.5918V8.46875H51.2207ZM56.4004 9.60547L53.8516 17H52.3105L55.5215 8.46875H56.5059L56.4004 9.60547ZM58.5332 17L55.9785 9.60547L55.8672 8.46875H56.8574L60.0801 17H58.5332ZM58.4102 13.8359V15.002H53.7695V13.8359H58.4102ZM63.8066 8.46875V17H62.3477V8.46875H63.8066ZM66.4844 8.46875V9.64062H59.6934V8.46875H66.4844ZM73.1934 15.834V17H68.6641V15.834H73.1934ZM69.0801 8.46875V17H67.6094V8.46875H69.0801ZM72.6016 12.0312V13.1797H68.6641V12.0312H72.6016ZM73.1641 8.46875V9.64062H68.6641V8.46875H73.1641Z" fill="white"/>
<path d="M13.0557 4.15527V6.7832H11.7021V4.15527H13.0557ZM12.8887 18.5078V20.8633H11.5439V18.5078H12.8887ZM14.2158 15.6689C14.2158 15.3291 14.1455 15.0332 14.0049 14.7812C13.8701 14.5234 13.6475 14.292 13.3369 14.0869C13.0264 13.876 12.6104 13.6797 12.0889 13.498C11.3389 13.2344 10.6826 12.9385 10.1201 12.6104C9.56348 12.2764 9.12988 11.8662 8.81934 11.3799C8.51465 10.8877 8.3623 10.2754 8.3623 9.54297C8.3623 8.82227 8.52637 8.19824 8.85449 7.6709C9.18848 7.14355 9.65137 6.73633 10.2432 6.44922C10.835 6.16211 11.5264 6.01855 12.3174 6.01855C12.9268 6.01855 13.4746 6.10937 13.9609 6.29102C14.4531 6.47266 14.8721 6.73926 15.2178 7.09082C15.5635 7.44238 15.8271 7.87598 16.0088 8.3916C16.1963 8.90137 16.29 9.4873 16.29 10.1494H14.1807C14.1807 9.77441 14.1367 9.44043 14.0488 9.14746C13.9668 8.84863 13.8438 8.59668 13.6797 8.3916C13.5156 8.18066 13.3164 8.01953 13.082 7.9082C12.8535 7.79687 12.5928 7.74121 12.2998 7.74121C11.8838 7.74121 11.541 7.82031 11.2715 7.97852C11.002 8.13086 10.8027 8.3418 10.6738 8.61133C10.5508 8.88086 10.4893 9.18848 10.4893 9.53418C10.4893 9.86816 10.5537 10.1611 10.6826 10.4131C10.8115 10.665 11.0312 10.8936 11.3418 11.0986C11.6582 11.2979 12.0918 11.5 12.6426 11.7051C13.3984 11.9746 14.0518 12.2764 14.6025 12.6104C15.1592 12.9385 15.5869 13.3457 15.8857 13.832C16.1904 14.3125 16.3428 14.9189 16.3428 15.6514C16.3428 16.4072 16.167 17.0488 15.8154 17.5762C15.4697 18.1035 14.9834 18.5049 14.3564 18.7803C13.7354 19.0498 13.0117 19.1846 12.1855 19.1846C11.6641 19.1846 11.1455 19.1172 10.6299 18.9824C10.1201 18.8418 9.65723 18.6133 9.24121 18.2969C8.8252 17.9805 8.49414 17.5615 8.24805 17.04C8.00195 16.5127 7.87891 15.8682 7.87891 15.1064H10.0059C10.0059 15.5635 10.0674 15.9443 10.1904 16.249C10.3135 16.5537 10.4805 16.7939 10.6914 16.9697C10.9023 17.1455 11.1367 17.2715 11.3945 17.3477C11.6582 17.4238 11.9219 17.4619 12.1855 17.4619C12.625 17.4619 12.9941 17.3887 13.293 17.2422C13.5977 17.0898 13.8262 16.8789 13.9785 16.6094C14.1367 16.334 14.2158 16.0205 14.2158 15.6689Z" fill="white"/>
</svg>
