<svg width="113" height="24" viewBox="0 0 113 24" fill="none" xmlns="http://www.w3.org/2000/svg">
<circle cx="12" cy="12" r="11.5" stroke="#4BD8B5"/>
<path d="M16 12L10 15.4641V8.5359L16 12Z" fill="#4BD8B5"/>
<path d="M29.5039 15.084L31.2031 8.46875H32.0938L31.9941 10.1738L30.1777 17H29.252L29.5039 15.084ZM28.2324 8.46875L29.6094 15.0312L29.7324 17H28.748L26.7734 8.46875H28.2324ZM34.0215 15.0137L35.3809 8.46875H36.8457L34.8711 17H33.8867L34.0215 15.0137ZM32.4395 8.46875L34.1211 15.1016L34.3672 17H33.4414L31.6543 10.1738L31.5605 8.46875H32.4395ZM41 9.60547L38.4512 17H36.9102L40.1211 8.46875H41.1055L41 9.60547ZM43.1328 17L40.5781 9.60547L40.4668 8.46875H41.457L44.6797 17H43.1328ZM43.0098 13.8359V15.002H38.3691V13.8359H43.0098ZM48.4062 8.46875V17H46.9473V8.46875H48.4062ZM51.084 8.46875V9.64062H44.293V8.46875H51.084ZM57.084 14.2227H58.5488C58.502 14.7812 58.3457 15.2793 58.0801 15.7168C57.8145 16.1504 57.4414 16.4922 56.9609 16.7422C56.4805 16.9922 55.8965 17.1172 55.209 17.1172C54.6816 17.1172 54.207 17.0234 53.7852 16.8359C53.3633 16.6445 53.002 16.375 52.7012 16.0273C52.4004 15.6758 52.1699 15.252 52.0098 14.7559C51.8535 14.2598 51.7754 13.7051 51.7754 13.0918V12.3828C51.7754 11.7695 51.8555 11.2148 52.0156 10.7188C52.1797 10.2227 52.4141 9.79883 52.7188 9.44727C53.0234 9.0918 53.3887 8.82031 53.8145 8.63281C54.2441 8.44531 54.7266 8.35156 55.2617 8.35156C55.9414 8.35156 56.5156 8.47656 56.9844 8.72656C57.4531 8.97656 57.8164 9.32227 58.0742 9.76367C58.3359 10.2051 58.4961 10.7109 58.5547 11.2812H57.0898C57.0508 10.9141 56.9648 10.5996 56.832 10.3379C56.7031 10.0762 56.5117 9.87695 56.2578 9.74023C56.0039 9.59961 55.6719 9.5293 55.2617 9.5293C54.9258 9.5293 54.6328 9.5918 54.3828 9.7168C54.1328 9.8418 53.9238 10.0254 53.7559 10.2676C53.5879 10.5098 53.4609 10.8086 53.375 11.1641C53.293 11.5156 53.252 11.918 53.252 12.3711V13.0918C53.252 13.5215 53.2891 13.9121 53.3633 14.2637C53.4414 14.6113 53.5586 14.9102 53.7148 15.1602C53.875 15.4102 54.0781 15.6035 54.3242 15.7402C54.5703 15.877 54.8652 15.9453 55.209 15.9453C55.627 15.9453 55.9648 15.8789 56.2227 15.7461C56.4844 15.6133 56.6816 15.4199 56.8145 15.166C56.9512 14.9082 57.041 14.5938 57.084 14.2227ZM65.5215 12.0312V13.1973H60.9922V12.0312H65.5215ZM61.3555 8.46875V17H59.8848V8.46875H61.3555ZM66.6523 8.46875V17H65.1875V8.46875H66.6523ZM78.1953 12.5V12.9688C78.1953 13.6133 78.1113 14.1914 77.9434 14.7031C77.7754 15.2148 77.5352 15.6504 77.2227 16.0098C76.9141 16.3691 76.543 16.6445 76.1094 16.8359C75.6758 17.0234 75.1953 17.1172 74.668 17.1172C74.1445 17.1172 73.666 17.0234 73.2324 16.8359C72.8027 16.6445 72.4297 16.3691 72.1133 16.0098C71.7969 15.6504 71.5508 15.2148 71.375 14.7031C71.2031 14.1914 71.1172 13.6133 71.1172 12.9688V12.5C71.1172 11.8555 71.2031 11.2793 71.375 10.7715C71.5469 10.2598 71.7891 9.82422 72.1016 9.46484C72.418 9.10156 72.791 8.82617 73.2207 8.63867C73.6543 8.44727 74.1328 8.35156 74.6562 8.35156C75.1836 8.35156 75.6641 8.44727 76.0977 8.63867C76.5312 8.82617 76.9043 9.10156 77.2168 9.46484C77.5293 9.82422 77.7695 10.2598 77.9375 10.7715C78.1094 11.2793 78.1953 11.8555 78.1953 12.5ZM76.7246 12.9688V12.4883C76.7246 12.0117 76.6777 11.5918 76.584 11.2285C76.4941 10.8613 76.3594 10.5547 76.1797 10.3086C76.0039 10.0586 75.7871 9.87109 75.5293 9.74609C75.2715 9.61719 74.9805 9.55273 74.6562 9.55273C74.332 9.55273 74.043 9.61719 73.7891 9.74609C73.5352 9.87109 73.3184 10.0586 73.1387 10.3086C72.9629 10.5547 72.8281 10.8613 72.7344 11.2285C72.6406 11.5918 72.5938 12.0117 72.5938 12.4883V12.9688C72.5938 13.4453 72.6406 13.8672 72.7344 14.2344C72.8281 14.6016 72.9648 14.9121 73.1445 15.166C73.3281 15.416 73.5469 15.6055 73.8008 15.7344C74.0547 15.8594 74.3438 15.9219 74.668 15.9219C74.9961 15.9219 75.2871 15.8594 75.541 15.7344C75.7949 15.6055 76.0098 15.416 76.1855 15.166C76.3613 14.9121 76.4941 14.6016 76.584 14.2344C76.6777 13.8672 76.7246 13.4453 76.7246 12.9688ZM86.4336 8.46875V17H84.9629L81.1367 10.8887V17H79.666V8.46875H81.1367L84.9746 14.5918V8.46875H86.4336ZM93.5293 15.834V17H89.2461V15.834H93.5293ZM89.6562 8.46875V17H88.1855V8.46875H89.6562ZM96.2363 8.46875V17H94.7656V8.46875H96.2363ZM104.832 8.46875V17H103.361L99.5352 10.8887V17H98.0645V8.46875H99.5352L103.373 14.5918V8.46875H104.832ZM112.168 15.834V17H107.639V15.834H112.168ZM108.055 8.46875V17H106.584V8.46875H108.055ZM111.576 12.0312V13.1797H107.639V12.0312H111.576ZM112.139 8.46875V9.64062H107.639V8.46875H112.139Z" fill="#4BD8B5"/>
</svg>
